<svg width="408" height="130" viewBox="0 0 408 130" fill="none" xmlns="http://www.w3.org/2000/svg">
<path d="M372.387 90.387C371.629 92.4727 369.378 93.8328 367.572 94.935C358.007 100.773 346.818 104.531 336.204 107.843C290.766 122.025 236.249 131.887 189.13 121.153C133.583 108.499 90.8364 74.3629 47.0723 40.3591C36.9477 32.4925 26.5651 24.9118 16.3065 17.2178C14.9408 16.1936 10.0195 13.2105 10.0195 12.1348" stroke="#EDEAD9" stroke-width="8" stroke-linecap="round"/>
<path d="M22.0582 56.6783C15.4667 42.6713 10.7105 28.6447 6.67529 13.4724C6.04725 11.1109 4 6.71192 4 4.24262C4 3.15409 5.58736 6.07906 6.67529 6.11533C21.4016 6.6062 36.2139 6.11533 50.9513 6.11533" stroke="#EDEAD9" stroke-width="8" stroke-linecap="round"/>
</svg>
