<svg width="400" height="130" viewBox="0 0 400 130" fill="none" xmlns="http://www.w3.org/2000/svg">
<path d="M27.6125 90.387C28.371 92.4727 30.6223 93.8328 32.4281 94.935C41.9931 100.773 53.1821 104.531 63.7958 107.843C109.234 122.025 163.751 131.887 210.87 121.153C266.417 108.499 309.164 74.3629 352.928 40.3591C363.052 32.4925 373.435 24.9118 383.694 17.2178C385.059 16.1936 389.98 13.2105 389.98 12.1348" stroke="#EDEAD9" stroke-width="8" stroke-linecap="round"/>
<path d="M377.942 56.6783C384.533 42.6713 389.29 28.6447 393.325 13.4724C393.953 11.1109 396 6.71192 396 4.24262C396 3.15409 394.413 6.07906 393.325 6.11533C378.598 6.6062 363.786 6.11533 349.049 6.11533" stroke="#EDEAD9" stroke-width="8" stroke-linecap="round"/>
</svg>
