<svg xmlns="http://www.w3.org/2000/svg" xmlns:xlink="http://www.w3.org/1999/xlink" width="500" zoomAndPan="magnify" viewBox="0 0 375 374.999991" height="500" preserveAspectRatio="xMidYMid meet" version="1.0"><defs><clipPath id="0c9a8281b2"><path d="M 91.203125 60 L 283.953125 60 L 283.953125 315.761719 L 91.203125 315.761719 Z M 91.203125 60 " clip-rule="nonzero"/></clipPath></defs><g clip-path="url(#0c9a8281b2)"><path fill="#3bc801" d="M 265.632812 132.878906 L 274.867188 132.878906 C 272.03125 155.519531 259.8125 253.226562 254.8125 293.203125 C 253.847656 300.890625 247.3125 306.664062 239.5625 306.664062 C 213.296875 306.664062 163.652344 306.664062 137.382812 306.664062 C 129.636719 306.664062 123.097656 300.890625 122.132812 293.203125 C 122.132812 293.203125 102.078125 132.878906 102.078125 132.878906 C 102.078125 132.878906 245.511719 132.878906 245.511719 132.878906 C 247.835938 132.878906 249.730469 130.984375 249.730469 128.664062 C 249.730469 126.335938 247.835938 124.445312 245.511719 124.445312 L 97.300781 124.445312 C 96.09375 124.445312 94.9375 124.964844 94.140625 125.875 C 93.335938 126.773438 92.964844 127.980469 93.113281 129.179688 C 93.113281 129.179688 108.085938 248.886719 113.765625 294.25 C 115.253906 306.15625 125.378906 315.09375 137.382812 315.09375 C 163.652344 315.09375 213.296875 315.09375 239.5625 315.09375 C 251.570312 315.09375 261.695312 306.15625 263.1875 294.25 C 268.859375 248.886719 283.832031 129.179688 283.832031 129.179688 C 283.980469 127.980469 283.613281 126.773438 282.808594 125.875 C 282.007812 124.964844 280.851562 124.445312 279.644531 124.445312 L 265.632812 124.445312 C 263.304688 124.445312 261.414062 126.335938 261.414062 128.664062 C 261.414062 130.984375 263.304688 132.878906 265.632812 132.878906 Z M 184.25 174.210938 L 184.25 265.324219 C 184.25 267.644531 186.144531 269.539062 188.46875 269.539062 C 190.800781 269.539062 192.6875 267.644531 192.6875 265.324219 L 192.6875 174.210938 C 192.6875 171.890625 190.800781 169.996094 188.46875 169.996094 C 186.144531 169.996094 184.25 171.890625 184.25 174.210938 Z M 135.566406 174.71875 L 143.058594 265.515625 C 143.25 267.832031 145.289062 269.558594 147.605469 269.371094 C 149.929688 269.175781 151.65625 267.136719 151.46875 264.824219 L 143.980469 174.023438 C 143.785156 171.703125 141.746094 169.976562 139.421875 170.164062 C 137.105469 170.359375 135.378906 172.394531 135.566406 174.71875 Z M 231.722656 174.023438 L 224.230469 264.824219 C 224.042969 267.136719 225.769531 269.175781 228.085938 269.371094 C 230.410156 269.558594 232.449219 267.832031 232.644531 265.515625 L 240.132812 174.71875 C 240.320312 172.394531 238.59375 170.359375 236.277344 170.164062 C 233.953125 169.976562 231.917969 171.703125 231.722656 174.023438 Z M 156.730469 95.695312 L 94.757812 112.292969 C 92.511719 112.890625 91.171875 115.203125 91.777344 117.457031 C 92.375 119.699219 94.691406 121.035156 96.945312 120.433594 L 273.070312 73.273438 C 275.324219 72.671875 276.660156 70.355469 276.058594 68.113281 C 275.453125 65.863281 273.136719 64.527344 270.890625 65.128906 L 208.914062 81.726562 L 204.105469 63.792969 C 203.5 61.542969 201.191406 60.210938 198.9375 60.816406 L 154.910156 72.601562 C 152.65625 73.203125 151.320312 75.519531 151.921875 77.769531 Z M 200.761719 83.90625 L 197.050781 70.050781 C 197.050781 70.050781 161.164062 79.65625 161.164062 79.65625 L 164.882812 93.511719 Z M 200.761719 83.90625 " fill-opacity="1" fill-rule="evenodd"/></g></svg>